<svg xmlns="http://www.w3.org/2000/svg" viewBox="0 0 420 420"><defs><style>.cls-1,.cls-2,.cls-3{fill:none;}.cls-2,.cls-3{stroke:#000;stroke-miterlimit:10;}.cls-2{stroke-width:16px;}.cls-3{stroke-width:20px;}</style></defs><title>Ресурс 3</title><g id="Слой_2" data-name="Слой 2"><g id="Слой_3" data-name="Слой 3"><rect class="cls-1" width="420" height="420"/><circle class="cls-2" cx="123.98" cy="167.92" r="25.27"/><circle class="cls-2" cx="198.83" cy="116.81" r="25.27"/><circle class="cls-2" cx="286.48" cy="141.29" r="25.27"/><circle class="cls-2" cx="301.22" cy="228.83" r="25.27"/><path class="cls-3" d="M86.76,261.79A89.41,89.41,0,0,1,56,174.12C64,136,91.81,71.49,187.69,55.41c138.49-23.23,178.7,77.64,178.7,140.29,0,30.38-16.08,203.72-181.38,167.09,0,0-22.34-6.26-8-19.66,14.9-14,23.89-32,14.3-48.25-11.62-19.66-38.45,1.11-98-28.88a34.64,34.64,0,0,1-6.13-3.95Z"/></g></g></svg>