<svg xmlns="http://www.w3.org/2000/svg" viewBox="0 0 420 420"><defs><style>.cls-1,.cls-2,.cls-3{fill:none;}.cls-1,.cls-2{stroke:#000;stroke-width:18px;}.cls-1{stroke-miterlimit:10;}.cls-2{stroke-linecap:round;stroke-linejoin:round;}</style></defs><title>Ресурс 2</title><g id="Слой_2" data-name="Слой 2"><g id="Слой_2-2" data-name="Слой 2"><circle class="cls-1" cx="210" cy="210" r="119"/><path class="cls-2" d="M46.91,116,46,162.75a8,8,0,0,1-1.25,4.15L20.65,204.83a8,8,0,0,0-.11,8.41L43.78,252a8.07,8.07,0,0,1,1.13,4.42l-1.72,45.56a8,8,0,0,0,4.3,7.4l41.07,21.39a8,8,0,0,1,3.58,3.77l17.68,38.73a8,8,0,0,0,7.43,4.67l46.56-.86a8,8,0,0,1,4.1,1L206,399.74a8,8,0,0,0,8,0L253.21,377a8.14,8.14,0,0,1,3.86-1.07l48.29-.88a8,8,0,0,0,6.87-4.15L332,334.82a8.13,8.13,0,0,1,2.75-2.93l40.34-25.42a8,8,0,0,0,3.73-7.09l-1.73-43.13a8,8,0,0,1,1-4.22l20.78-37.22a8,8,0,0,0,.07-7.66l-22-41.39A8,8,0,0,1,376,162V118.48a8,8,0,0,0-3.82-6.82L333.77,88.09A8.11,8.11,0,0,1,331,85.18L311.19,49.91a8,8,0,0,0-6.67-4.08l-46.75-1.76a8,8,0,0,1-3.34-.87L214.94,23a8,8,0,0,0-7.74.25L171.11,44.75a8.1,8.1,0,0,1-4.56,1.11L122.21,43.3a8,8,0,0,0-7.58,4.35L94.27,87.52a8,8,0,0,1-3.81,3.64L51.58,108.91A8,8,0,0,0,46.91,116Z"/><polyline class="cls-2" points="159 204 195 241 263 178"/><rect class="cls-3" width="420" height="420"/></g></g></svg>